<svg width="54" height="44" viewBox="0 0 54 44" fill="none" xmlns="http://www.w3.org/2000/svg">
<path d="M48.7179 27.3833V22.0083H21.9679V27.3833H48.7179ZM48.7179 38.0083V32.6333H37.9679V38.0083H48.7179ZM32.7179 38.0083V32.6333H5.9679V38.0083H32.7179ZM5.9679 22.0083V27.3833H16.7179V22.0083H5.9679ZM48.7179 0.633301C50.1346 0.633301 51.3429 1.17497 52.3429 2.2583C53.4262 3.34163 53.9679 4.59163 53.9679 6.0083V38.0083C53.9679 39.425 53.4262 40.675 52.3429 41.7583C51.3429 42.8416 50.1346 43.3833 48.7179 43.3833H5.9679C4.55123 43.3833 3.30123 42.8416 2.2179 41.7583C1.2179 40.675 0.717896 39.425 0.717896 38.0083V6.0083C0.717896 4.59163 1.2179 3.34163 2.2179 2.2583C3.30123 1.17497 4.55123 0.633301 5.9679 0.633301H48.7179Z" fill="#0044AA"/>
</svg>
