<svg width="19" height="20" viewBox="0 0 19 20" fill="none" xmlns="http://www.w3.org/2000/svg">
<path d="M10.8646 2.84546C10.8557 2.85431 10.8469 2.86369 10.838 2.87254C10.8563 2.88712 10.8745 2.90118 10.8932 2.91576C10.8776 2.89389 10.862 2.87098 10.8646 2.84546Z" fill="white"/>
<path d="M17.5001 14.9647C18.2782 13.5133 18.5932 11.9406 18.5125 10.2992C18.3162 6.3148 15.6348 2.94284 11.803 1.83778C11.4181 1.72685 11.026 1.6477 10.6307 1.58364C10.6156 1.56385 10.6005 1.54355 10.5854 1.52376C10.7349 1.39356 10.8911 1.27014 11.0322 1.1311C11.4837 0.686365 11.441 0.320788 10.9062 0.0010376C10.8021 0.0010376 10.6979 0.0010376 10.5938 0.0010376C10.6068 0.048948 10.5724 0.0718617 10.5417 0.0952962C9.93186 0.557736 9.44078 1.1436 8.9023 1.67999C8.65911 1.92214 8.66692 2.21585 8.90543 2.46842C9.37516 2.96471 9.8553 3.45163 10.3558 3.91719C10.6818 4.22028 11.1213 4.10623 11.2551 3.70993C11.3312 3.48392 11.2338 3.30425 11.0952 3.13761C11.0328 3.06262 10.9536 3.00273 10.8968 2.92253C10.8953 2.92045 10.8937 2.91837 10.8921 2.91628C10.8734 2.90222 10.8552 2.88764 10.8369 2.87306C10.8458 2.86421 10.8547 2.85483 10.8635 2.84598C10.8645 2.83661 10.8677 2.82723 10.8744 2.81734C10.8953 2.78661 10.9317 2.79078 10.964 2.79286C11.0489 2.79859 11.1317 2.81682 11.2135 2.83869C13.6923 3.50058 15.503 4.98268 16.6289 7.28551C17.0554 8.15779 17.2851 9.08944 17.3684 10.0612C17.5001 11.5943 17.2153 13.0457 16.5237 14.4096C15.7066 16.0213 14.4745 17.2342 12.856 18.0409C11.9389 18.4981 10.9645 18.758 9.93915 18.846C8.42632 18.9762 6.9937 18.696 5.6444 18.0237C4.16803 17.2878 3.01661 16.1927 2.19328 14.7574C1.64075 13.7951 1.29965 12.7619 1.18091 11.662C0.974691 9.75133 1.37776 7.97396 2.41929 6.35281C3.25148 5.05715 4.36175 4.0703 5.75115 3.40112C6.00945 3.27665 6.27817 3.17719 6.54219 3.06731C6.73644 2.98659 6.85518 2.84129 6.86924 2.62153C6.8833 2.39812 6.79581 2.22835 6.60677 2.11326C6.4495 2.01692 6.28285 2.0315 6.11725 2.09087C5.35849 2.36115 4.64973 2.72985 3.99201 3.19281C2.67759 4.11873 1.66887 5.3066 0.966359 6.75276C0.533082 7.64483 0.261763 8.58534 0.1373 9.56802C-0.109543 11.512 0.232079 13.3514 1.14446 15.0829C1.51004 15.7766 1.97144 16.4031 2.50522 16.9811C3.40667 17.9565 4.46122 18.7101 5.68345 19.2261C6.47293 19.5594 7.29366 19.7818 8.14772 19.8745C8.25135 19.8859 8.3529 19.9078 8.45705 19.9172C8.50392 19.9214 8.56797 19.9214 8.56277 20C9.00542 20 9.44807 20 9.89072 20C10.1516 19.9266 10.4235 19.9359 10.6885 19.8901C13.7626 19.3574 16.0316 17.7034 17.5001 14.9647Z" fill="white"/>
<path d="M8.86502 1.6451C8.61297 1.90131 8.61402 2.24033 8.86711 2.49759C9.34673 2.98451 9.83 3.46778 10.3164 3.94792C10.5737 4.20206 10.9361 4.20362 11.1694 3.96198C11.398 3.72556 11.3918 3.3756 11.1444 3.12303C11.0689 3.04596 10.9799 2.9819 10.8934 2.91525C10.895 2.91733 10.8965 2.91941 10.8981 2.92149C10.9549 3.00169 11.034 3.06158 11.0965 3.13657C11.235 3.30322 11.3324 3.48288 11.2564 3.70889C11.1231 4.10519 10.683 4.21924 10.357 3.91616C9.85656 3.45111 9.37642 2.9642 8.90669 2.46739C8.66817 2.21534 8.66036 1.92162 8.90356 1.67895C9.44151 1.14256 9.93311 0.557219 10.5429 0.0942585C10.5737 0.0708241 10.608 0.0479104 10.595 0C10.506 0.059888 10.4049 0.107278 10.3299 0.181226C9.83729 0.66658 9.34882 1.1535 8.86502 1.6451Z" fill="white"/>
<path d="M8.45776 19.9156C8.3536 19.9062 8.25205 19.8844 8.14842 19.8729C7.29437 19.7802 6.47364 19.5579 5.68416 19.2246C4.46192 18.7085 3.40737 17.9549 2.50593 16.9795C1.97214 16.402 1.51074 15.775 1.14517 15.0814C0.232785 13.3503 -0.108837 11.511 0.138006 9.56644C0.262989 8.58376 0.533787 7.64326 0.967064 6.75119C1.6701 5.30502 2.6783 4.11663 3.99271 3.19123C4.65044 2.72775 5.3592 2.35957 6.11796 2.08929C6.28356 2.03045 6.4502 2.01587 6.60748 2.11169C6.79651 2.2273 6.884 2.39654 6.86994 2.61995C6.85588 2.84024 6.73715 2.98501 6.5429 3.06573C6.27835 3.17561 6.00964 3.2756 5.75186 3.39954C4.36246 4.06872 3.25218 5.05557 2.42 6.35124C1.37847 7.97238 0.975397 9.74975 1.18162 11.6604C1.30035 12.7598 1.64146 13.7935 2.19399 14.7559C3.01784 16.1911 4.16925 17.2863 5.6451 18.0221C6.99388 18.6944 8.42703 18.9746 9.93986 18.8444C10.9652 18.7559 11.9396 18.4965 12.8567 18.0393C14.4752 17.2326 15.7073 16.0203 16.5244 14.408C17.2155 13.0441 17.5009 11.5927 17.3691 10.0596C17.2853 9.08786 17.0561 8.15621 16.6296 7.28393C15.5037 4.9811 13.693 3.49901 11.2142 2.83711C11.1324 2.81524 11.0496 2.79753 10.9647 2.79129C10.9324 2.7892 10.896 2.78504 10.8751 2.81576C10.8684 2.82566 10.8653 2.83503 10.8642 2.8444C10.8715 2.83711 10.8788 2.8293 10.8861 2.82201C10.9559 2.83503 11.0262 2.84597 11.0954 2.86211C15.4964 3.88229 18.2127 8.3416 17.1045 12.728C15.9729 17.2066 11.2636 19.8411 6.85744 18.4606C3.63651 17.4519 1.36649 14.5424 1.19256 11.1537C1.08996 9.14202 1.67166 7.32924 2.91577 5.74038C3.86044 4.53429 5.06184 3.6745 6.49864 3.14176C6.85796 3.00844 7.01628 2.68974 6.8965 2.37103C6.77568 2.04867 6.44656 1.91432 6.09296 2.04242C1.82372 3.5917 -0.714488 8.09059 0.178105 12.5254C0.951962 16.3676 3.97605 19.2709 7.84273 19.8891C8.08228 19.9276 8.32965 19.9187 8.56243 19.9984C8.56868 19.9198 8.50463 19.9198 8.45776 19.9156Z" fill="white"/>
<path d="M3.24912 10.745C3.25068 14.0648 5.94876 16.7598 9.26864 16.7588C12.5885 16.7577 15.285 14.0586 15.2824 10.7387C15.2798 7.41675 12.5828 4.72231 9.26239 4.72492C5.94199 4.727 3.24755 7.42404 3.24912 10.745ZM7.32671 12.6994C7.49908 12.4416 7.84852 12.35 8.11775 12.5317C8.4776 12.7749 8.86557 12.8416 9.28583 12.8155C9.75244 12.7864 10.1269 12.3984 10.1279 11.9323C10.1284 11.6193 9.9847 11.4084 9.66599 11.2824C9.25615 11.1204 8.83849 10.9783 8.44688 10.7731C8.01204 10.5455 7.62927 10.269 7.46836 9.77009C7.18871 8.90146 7.63917 7.92033 8.4901 7.58704C8.61821 7.53705 8.64893 7.47872 8.64737 7.35218C8.64373 6.97254 8.88692 6.7132 9.23063 6.71216C9.57642 6.71112 9.81232 6.9616 9.8118 7.34905C9.8118 7.46258 9.84721 7.50841 9.95189 7.5334C10.1883 7.59017 10.4018 7.70109 10.5982 7.8417C10.8815 8.0448 10.945 8.39267 10.7554 8.66555C10.5747 8.92593 10.2258 8.99467 9.94356 8.80824C9.66755 8.62597 9.37592 8.56348 9.05357 8.63274C8.75517 8.69732 8.56926 8.92229 8.55988 9.22589C8.5552 9.3816 8.60623 9.49877 8.74163 9.58678C9.07075 9.80082 9.43164 9.94559 9.79826 10.0753C10.2076 10.2195 10.5914 10.3992 10.8762 10.7429C11.7032 11.7412 11.2642 13.3368 10.0185 13.831C9.86232 13.893 9.80399 13.9596 9.81024 14.1325C9.8243 14.5137 9.57798 14.7705 9.23115 14.7705C8.8864 14.7705 8.64581 14.5143 8.64685 14.1315C8.64737 14.0039 8.61665 13.9576 8.48177 13.9373C8.10942 13.881 7.77769 13.7128 7.47357 13.4972C7.2137 13.3129 7.15486 12.9572 7.32671 12.6994Z" fill="white"/>
</svg>
