<svg width="54" height="54" viewBox="0 0 54 54" fill="none" xmlns="http://www.w3.org/2000/svg">
<path d="M45.9679 13.7573V8.50732H19.3429V13.7573H45.9679ZM35.3429 35.1323V29.7573H19.3429V35.1323H35.3429ZM45.9679 24.5073V19.1323H19.3429V24.5073H45.9679ZM48.7179 0.507324C50.1346 0.507324 51.3429 1.04899 52.3429 2.13232C53.4262 3.13232 53.9679 4.34066 53.9679 5.75732V37.7573C53.9679 39.174 53.4262 40.424 52.3429 41.5073C51.3429 42.5907 50.1346 43.1323 48.7179 43.1323H16.7179C15.3012 43.1323 14.0512 42.5907 12.9679 41.5073C11.8846 40.424 11.3429 39.174 11.3429 37.7573V5.75732C11.3429 4.34066 11.8846 3.13232 12.9679 2.13232C14.0512 1.04899 15.3012 0.507324 16.7179 0.507324H48.7179ZM5.9679 11.1323V48.5073H43.3429V53.7573H5.9679C4.55123 53.7573 3.30123 53.2573 2.2179 52.2573C1.2179 51.174 0.717896 49.924 0.717896 48.5073V11.1323H5.9679Z" fill="#0044AA"/>
</svg>
