<svg width="38" height="38" viewBox="0 0 38 38" fill="none" xmlns="http://www.w3.org/2000/svg">
<path d="M37.3125 30.6406C37.6771 30.849 37.8333 31.2135 37.7812 31.7344C37.7812 32.2031 37.5729 32.6198 37.1562 32.9844L33.3281 36.8125C32.5469 37.5938 31.7656 37.5938 30.9844 36.8125L15.8281 21.6562C13.9531 22.4375 11.9479 22.6198 9.8125 22.2031C7.72917 21.7344 5.90625 20.7188 4.34375 19.1562C2.67708 17.4896 1.63542 15.5104 1.21875 13.2188C0.802083 10.9271 1.11458 8.79167 2.15625 6.8125L9.5 14L14.5 9L7.3125 1.8125C9.29167 0.875 11.4271 0.588542 13.7188 0.953125C16.0104 1.31771 17.9896 2.33333 19.6562 4C21.2188 5.5625 22.2083 7.41146 22.625 9.54688C23.0938 11.6302 22.9375 13.6094 22.1562 15.4844L37.3125 30.6406Z" fill="black"/>
</svg>
